<svg width="634" height="301" viewBox="0 0 634 301" fill="none" xmlns="http://www.w3.org/2000/svg">
<g filter="url(#filter0_d_2842_567)">
<rect x="20" y="20" width="594" height="261" rx="25" fill="white"/>
<path d="M307.131 71C305.423 71 304.253 70.6837 303.62 70.0511C302.988 69.4185 302.671 68.2482 302.671 66.5401V60.9416C302.671 58.6642 302.83 56.6083 303.146 54.7737C303.525 52.8759 304.031 51.1679 304.664 49.6496C305.36 48.0681 306.151 46.5182 307.036 45L312.255 46.6131C311.749 48.5109 311.401 50.3455 311.212 52.1168C311.085 53.8881 310.99 55.7859 310.927 57.8102C313.331 57.8102 314.564 59.1387 314.628 61.7956L314.533 66.5401C314.469 68.2482 314.09 69.4185 313.394 70.0511C312.761 70.6837 311.623 71 309.978 71H307.131ZM323.832 71C322.187 71 321.049 70.6837 320.416 70.0511C319.783 69.4185 319.435 68.2482 319.372 66.5401V60.9416C319.435 58.6642 319.625 56.6083 319.941 54.7737C320.321 52.8759 320.827 51.1679 321.46 49.6496C322.092 48.0681 322.883 46.5182 323.832 45L328.956 46.6131C328.45 48.5109 328.102 50.3455 327.912 52.1168C327.786 53.8881 327.691 55.7859 327.628 57.8102C330.031 57.8102 331.265 59.1387 331.328 61.7956L331.233 66.5401C331.17 68.2482 330.791 69.4185 330.095 70.0511C329.462 70.6837 328.323 71 326.679 71H323.832Z" fill="#008AEE"/>
<path d="M81.4844 101.758H78.5234V100.203H81.4844C82 100.203 82.4167 100.12 82.7344 99.9531C83.0521 99.7865 83.2839 99.5573 83.4297 99.2656C83.5807 98.9688 83.6562 98.6302 83.6562 98.25C83.6562 97.8906 83.5807 97.5547 83.4297 97.2422C83.2839 96.9245 83.0521 96.6693 82.7344 96.4766C82.4167 96.2839 82 96.1875 81.4844 96.1875H79.125V106H77.1641V94.625H81.4844C82.3646 94.625 83.112 94.7812 83.7266 95.0938C84.3464 95.401 84.8177 95.8281 85.1406 96.375C85.4635 96.9167 85.625 97.5365 85.625 98.2344C85.625 98.9688 85.4635 99.599 85.1406 100.125C84.8177 100.651 84.3464 101.055 83.7266 101.336C83.112 101.617 82.3646 101.758 81.4844 101.758ZM90.8125 106.156C90.1875 106.156 89.6224 106.055 89.1172 105.852C88.6172 105.643 88.1901 105.354 87.8359 104.984C87.487 104.615 87.2188 104.18 87.0312 103.68C86.8438 103.18 86.75 102.641 86.75 102.062V101.75C86.75 101.089 86.8464 100.49 87.0391 99.9531C87.2318 99.4167 87.5 98.9583 87.8438 98.5781C88.1875 98.1927 88.5938 97.8984 89.0625 97.6953C89.5312 97.4922 90.0391 97.3906 90.5859 97.3906C91.1901 97.3906 91.7188 97.4922 92.1719 97.6953C92.625 97.8984 93 98.1849 93.2969 98.5547C93.599 98.9193 93.8229 99.3542 93.9688 99.8594C94.1198 100.365 94.1953 100.922 94.1953 101.531V102.336H87.6641V100.984H92.3359V100.836C92.3255 100.497 92.2578 100.18 92.1328 99.8828C92.013 99.5859 91.8281 99.3464 91.5781 99.1641C91.3281 98.9818 90.9948 98.8906 90.5781 98.8906C90.2656 98.8906 89.987 98.9583 89.7422 99.0938C89.5026 99.224 89.3021 99.4141 89.1406 99.6641C88.9792 99.9141 88.8542 100.216 88.7656 100.57C88.6823 100.919 88.6406 101.312 88.6406 101.75V102.062C88.6406 102.432 88.6901 102.776 88.7891 103.094C88.8932 103.406 89.0443 103.68 89.2422 103.914C89.4401 104.148 89.6797 104.333 89.9609 104.469C90.2422 104.599 90.5625 104.664 90.9219 104.664C91.375 104.664 91.7786 104.573 92.1328 104.391C92.487 104.208 92.7943 103.951 93.0547 103.617L94.0469 104.578C93.8646 104.844 93.6276 105.099 93.3359 105.344C93.0443 105.583 92.6875 105.779 92.2656 105.93C91.849 106.081 91.3646 106.156 90.8125 106.156ZM100.43 104.305V100.273C100.43 99.9714 100.375 99.7109 100.266 99.4922C100.156 99.2734 99.9896 99.1042 99.7656 98.9844C99.5469 98.8646 99.2708 98.8047 98.9375 98.8047C98.6302 98.8047 98.3646 98.8568 98.1406 98.9609C97.9167 99.0651 97.7422 99.2057 97.6172 99.3828C97.4922 99.5599 97.4297 99.7604 97.4297 99.9844H95.5547C95.5547 99.651 95.6354 99.3281 95.7969 99.0156C95.9583 98.7031 96.1927 98.4245 96.5 98.1797C96.8073 97.9349 97.1745 97.7422 97.6016 97.6016C98.0286 97.4609 98.5078 97.3906 99.0391 97.3906C99.6745 97.3906 100.237 97.4974 100.727 97.7109C101.221 97.9245 101.609 98.2474 101.891 98.6797C102.177 99.1068 102.32 99.6432 102.32 100.289V104.047C102.32 104.432 102.346 104.779 102.398 105.086C102.456 105.388 102.536 105.651 102.641 105.875V106H100.711C100.622 105.797 100.552 105.539 100.5 105.227C100.453 104.909 100.43 104.602 100.43 104.305ZM100.703 100.859L100.719 102.023H99.3672C99.0182 102.023 98.7109 102.057 98.4453 102.125C98.1797 102.188 97.9583 102.281 97.7812 102.406C97.6042 102.531 97.4714 102.682 97.3828 102.859C97.2943 103.036 97.25 103.237 97.25 103.461C97.25 103.685 97.3021 103.891 97.4062 104.078C97.5104 104.26 97.6615 104.404 97.8594 104.508C98.0625 104.612 98.3073 104.664 98.5938 104.664C98.9792 104.664 99.3151 104.586 99.6016 104.43C99.8932 104.268 100.122 104.073 100.289 103.844C100.456 103.609 100.544 103.388 100.555 103.18L101.164 104.016C101.102 104.229 100.995 104.458 100.844 104.703C100.693 104.948 100.495 105.182 100.25 105.406C100.01 105.625 99.7214 105.805 99.3828 105.945C99.0495 106.086 98.6641 106.156 98.2266 106.156C97.6745 106.156 97.1823 106.047 96.75 105.828C96.3177 105.604 95.9792 105.305 95.7344 104.93C95.4896 104.549 95.3672 104.12 95.3672 103.641C95.3672 103.193 95.4505 102.797 95.6172 102.453C95.7891 102.104 96.0391 101.812 96.3672 101.578C96.7005 101.344 97.1068 101.167 97.5859 101.047C98.0651 100.922 98.612 100.859 99.2266 100.859H100.703ZM109.914 97.5469V99.0469H106.227V106H104.344V97.5469H109.914ZM112.953 103.25L116.273 97.5469H118.156V106H116.273V100.289L112.953 106H111.07V97.5469H112.953V103.25ZM122.039 99.1719V109.25H120.156V97.5469H121.891L122.039 99.1719ZM127.547 101.695V101.859C127.547 102.474 127.474 103.044 127.328 103.57C127.188 104.091 126.977 104.547 126.695 104.938C126.419 105.323 126.078 105.622 125.672 105.836C125.266 106.049 124.797 106.156 124.266 106.156C123.74 106.156 123.279 106.06 122.883 105.867C122.492 105.669 122.161 105.391 121.891 105.031C121.62 104.672 121.401 104.25 121.234 103.766C121.073 103.276 120.958 102.74 120.891 102.156V101.523C120.958 100.904 121.073 100.341 121.234 99.8359C121.401 99.3307 121.62 98.8958 121.891 98.5312C122.161 98.1667 122.492 97.8854 122.883 97.6875C123.273 97.4896 123.729 97.3906 124.25 97.3906C124.781 97.3906 125.253 97.4948 125.664 97.7031C126.076 97.9062 126.422 98.1979 126.703 98.5781C126.984 98.9531 127.195 99.4062 127.336 99.9375C127.477 100.464 127.547 101.049 127.547 101.695ZM125.664 101.859V101.695C125.664 101.305 125.628 100.943 125.555 100.609C125.482 100.271 125.367 99.974 125.211 99.7188C125.055 99.4635 124.854 99.2656 124.609 99.125C124.37 98.9792 124.081 98.9062 123.742 98.9062C123.409 98.9062 123.122 98.9635 122.883 99.0781C122.643 99.1875 122.443 99.3411 122.281 99.5391C122.12 99.737 121.995 99.9688 121.906 100.234C121.818 100.495 121.755 100.779 121.719 101.086V102.602C121.781 102.977 121.888 103.32 122.039 103.633C122.19 103.945 122.404 104.195 122.68 104.383C122.961 104.565 123.32 104.656 123.758 104.656C124.096 104.656 124.385 104.583 124.625 104.438C124.865 104.292 125.06 104.091 125.211 103.836C125.367 103.576 125.482 103.276 125.555 102.938C125.628 102.599 125.664 102.24 125.664 101.859ZM133.914 104.305V100.273C133.914 99.9714 133.859 99.7109 133.75 99.4922C133.641 99.2734 133.474 99.1042 133.25 98.9844C133.031 98.8646 132.755 98.8047 132.422 98.8047C132.115 98.8047 131.849 98.8568 131.625 98.9609C131.401 99.0651 131.227 99.2057 131.102 99.3828C130.977 99.5599 130.914 99.7604 130.914 99.9844H129.039C129.039 99.651 129.12 99.3281 129.281 99.0156C129.443 98.7031 129.677 98.4245 129.984 98.1797C130.292 97.9349 130.659 97.7422 131.086 97.6016C131.513 97.4609 131.992 97.3906 132.523 97.3906C133.159 97.3906 133.721 97.4974 134.211 97.7109C134.706 97.9245 135.094 98.2474 135.375 98.6797C135.661 99.1068 135.805 99.6432 135.805 100.289V104.047C135.805 104.432 135.831 104.779 135.883 105.086C135.94 105.388 136.021 105.651 136.125 105.875V106H134.195C134.107 105.797 134.036 105.539 133.984 105.227C133.938 104.909 133.914 104.602 133.914 104.305ZM134.188 100.859L134.203 102.023H132.852C132.503 102.023 132.195 102.057 131.93 102.125C131.664 102.188 131.443 102.281 131.266 102.406C131.089 102.531 130.956 102.682 130.867 102.859C130.779 103.036 130.734 103.237 130.734 103.461C130.734 103.685 130.786 103.891 130.891 104.078C130.995 104.26 131.146 104.404 131.344 104.508C131.547 104.612 131.792 104.664 132.078 104.664C132.464 104.664 132.799 104.586 133.086 104.43C133.378 104.268 133.607 104.073 133.773 103.844C133.94 103.609 134.029 103.388 134.039 103.18L134.648 104.016C134.586 104.229 134.479 104.458 134.328 104.703C134.177 104.948 133.979 105.182 133.734 105.406C133.495 105.625 133.206 105.805 132.867 105.945C132.534 106.086 132.148 106.156 131.711 106.156C131.159 106.156 130.667 106.047 130.234 105.828C129.802 105.604 129.464 105.305 129.219 104.93C128.974 104.549 128.852 104.12 128.852 103.641C128.852 103.193 128.935 102.797 129.102 102.453C129.273 102.104 129.523 101.812 129.852 101.578C130.185 101.344 130.591 101.167 131.07 101.047C131.549 100.922 132.096 100.859 132.711 100.859H134.188ZM141.57 97.5469V106H139.68V97.5469H141.57ZM144.344 97.5469V99.0312H136.953V97.5469H144.344ZM153.039 104.656C153.346 104.656 153.622 104.596 153.867 104.477C154.117 104.352 154.318 104.18 154.469 103.961C154.625 103.742 154.711 103.49 154.727 103.203H156.5C156.49 103.75 156.328 104.247 156.016 104.695C155.703 105.143 155.289 105.5 154.773 105.766C154.258 106.026 153.688 106.156 153.062 106.156C152.417 106.156 151.854 106.047 151.375 105.828C150.896 105.604 150.497 105.297 150.18 104.906C149.862 104.516 149.622 104.065 149.461 103.555C149.305 103.044 149.227 102.497 149.227 101.914V101.641C149.227 101.057 149.305 100.51 149.461 100C149.622 99.4844 149.862 99.0312 150.18 98.6406C150.497 98.25 150.896 97.9453 151.375 97.7266C151.854 97.5026 152.414 97.3906 153.055 97.3906C153.732 97.3906 154.326 97.526 154.836 97.7969C155.346 98.0625 155.747 98.4349 156.039 98.9141C156.336 99.388 156.49 99.9401 156.5 100.57H154.727C154.711 100.258 154.633 99.9766 154.492 99.7266C154.357 99.4714 154.164 99.2682 153.914 99.1172C153.669 98.9661 153.375 98.8906 153.031 98.8906C152.651 98.8906 152.336 98.9688 152.086 99.125C151.836 99.276 151.641 99.4844 151.5 99.75C151.359 100.01 151.258 100.305 151.195 100.633C151.138 100.956 151.109 101.292 151.109 101.641V101.914C151.109 102.263 151.138 102.602 151.195 102.93C151.253 103.258 151.352 103.552 151.492 103.812C151.638 104.068 151.836 104.273 152.086 104.43C152.336 104.581 152.654 104.656 153.039 104.656ZM162.055 102.383H159.352L159.336 101.055H161.555C161.919 101.055 162.219 101.018 162.453 100.945C162.693 100.872 162.87 100.763 162.984 100.617C163.099 100.466 163.156 100.284 163.156 100.07C163.156 99.8932 163.122 99.7396 163.055 99.6094C162.987 99.474 162.883 99.3646 162.742 99.2812C162.607 99.1927 162.435 99.1302 162.227 99.0938C162.023 99.0521 161.786 99.0312 161.516 99.0312H159.977V106H158.094V97.5469H161.516C162.057 97.5469 162.544 97.5938 162.977 97.6875C163.414 97.7812 163.786 97.9245 164.094 98.1172C164.401 98.3099 164.635 98.5547 164.797 98.8516C164.964 99.1432 165.047 99.487 165.047 99.8828C165.047 100.143 164.99 100.388 164.875 100.617C164.766 100.846 164.602 101.049 164.383 101.227C164.164 101.404 163.896 101.549 163.578 101.664C163.26 101.773 162.896 101.841 162.484 101.867L162.055 102.383ZM162.055 106H158.805L159.555 104.516H162.055C162.388 104.516 162.664 104.474 162.883 104.391C163.102 104.307 163.263 104.188 163.367 104.031C163.477 103.87 163.531 103.68 163.531 103.461C163.531 103.237 163.479 103.044 163.375 102.883C163.271 102.721 163.109 102.599 162.891 102.516C162.677 102.427 162.398 102.383 162.055 102.383H159.906L159.922 101.055H162.477L163.016 101.57C163.552 101.607 163.997 101.721 164.352 101.914C164.706 102.107 164.971 102.349 165.148 102.641C165.326 102.932 165.414 103.25 165.414 103.594C165.414 103.99 165.339 104.339 165.188 104.641C165.042 104.943 164.823 105.195 164.531 105.398C164.245 105.596 163.893 105.747 163.477 105.852C163.06 105.951 162.586 106 162.055 106ZM166.68 101.867V101.688C166.68 101.078 166.768 100.513 166.945 99.9922C167.122 99.4661 167.378 99.0104 167.711 98.625C168.049 98.2344 168.461 97.9323 168.945 97.7188C169.435 97.5 169.987 97.3906 170.602 97.3906C171.221 97.3906 171.773 97.5 172.258 97.7188C172.747 97.9323 173.161 98.2344 173.5 98.625C173.839 99.0104 174.096 99.4661 174.273 99.9922C174.451 100.513 174.539 101.078 174.539 101.688V101.867C174.539 102.477 174.451 103.042 174.273 103.562C174.096 104.083 173.839 104.539 173.5 104.93C173.161 105.315 172.75 105.617 172.266 105.836C171.781 106.049 171.232 106.156 170.617 106.156C169.997 106.156 169.443 106.049 168.953 105.836C168.469 105.617 168.057 105.315 167.719 104.93C167.38 104.539 167.122 104.083 166.945 103.562C166.768 103.042 166.68 102.477 166.68 101.867ZM168.562 101.688V101.867C168.562 102.247 168.602 102.607 168.68 102.945C168.758 103.284 168.88 103.581 169.047 103.836C169.214 104.091 169.427 104.292 169.688 104.438C169.948 104.583 170.258 104.656 170.617 104.656C170.966 104.656 171.268 104.583 171.523 104.438C171.784 104.292 171.997 104.091 172.164 103.836C172.331 103.581 172.453 103.284 172.531 102.945C172.615 102.607 172.656 102.247 172.656 101.867V101.688C172.656 101.312 172.615 100.958 172.531 100.625C172.453 100.286 172.328 99.987 172.156 99.7266C171.99 99.4661 171.776 99.263 171.516 99.1172C171.26 98.9661 170.956 98.8906 170.602 98.8906C170.247 98.8906 169.94 98.9661 169.68 99.1172C169.424 99.263 169.214 99.4661 169.047 99.7266C168.88 99.987 168.758 100.286 168.68 100.625C168.602 100.958 168.562 101.312 168.562 101.688ZM179.844 106.156C179.219 106.156 178.654 106.055 178.148 105.852C177.648 105.643 177.221 105.354 176.867 104.984C176.518 104.615 176.25 104.18 176.062 103.68C175.875 103.18 175.781 102.641 175.781 102.062V101.75C175.781 101.089 175.878 100.49 176.07 99.9531C176.263 99.4167 176.531 98.9583 176.875 98.5781C177.219 98.1927 177.625 97.8984 178.094 97.6953C178.562 97.4922 179.07 97.3906 179.617 97.3906C180.221 97.3906 180.75 97.4922 181.203 97.6953C181.656 97.8984 182.031 98.1849 182.328 98.5547C182.63 98.9193 182.854 99.3542 183 99.8594C183.151 100.365 183.227 100.922 183.227 101.531V102.336H176.695V100.984H181.367V100.836C181.357 100.497 181.289 100.18 181.164 99.8828C181.044 99.5859 180.859 99.3464 180.609 99.1641C180.359 98.9818 180.026 98.8906 179.609 98.8906C179.297 98.8906 179.018 98.9583 178.773 99.0938C178.534 99.224 178.333 99.4141 178.172 99.6641C178.01 99.9141 177.885 100.216 177.797 100.57C177.714 100.919 177.672 101.312 177.672 101.75V102.062C177.672 102.432 177.721 102.776 177.82 103.094C177.924 103.406 178.076 103.68 178.273 103.914C178.471 104.148 178.711 104.333 178.992 104.469C179.273 104.599 179.594 104.664 179.953 104.664C180.406 104.664 180.81 104.573 181.164 104.391C181.518 104.208 181.826 103.951 182.086 103.617L183.078 104.578C182.896 104.844 182.659 105.099 182.367 105.344C182.076 105.583 181.719 105.779 181.297 105.93C180.88 106.081 180.396 106.156 179.844 106.156ZM188.805 102.383H186.102L186.086 101.055H188.305C188.669 101.055 188.969 101.018 189.203 100.945C189.443 100.872 189.62 100.763 189.734 100.617C189.849 100.466 189.906 100.284 189.906 100.07C189.906 99.8932 189.872 99.7396 189.805 99.6094C189.737 99.474 189.633 99.3646 189.492 99.2812C189.357 99.1927 189.185 99.1302 188.977 99.0938C188.773 99.0521 188.536 99.0312 188.266 99.0312H186.727V106H184.844V97.5469H188.266C188.807 97.5469 189.294 97.5938 189.727 97.6875C190.164 97.7812 190.536 97.9245 190.844 98.1172C191.151 98.3099 191.385 98.5547 191.547 98.8516C191.714 99.1432 191.797 99.487 191.797 99.8828C191.797 100.143 191.74 100.388 191.625 100.617C191.516 100.846 191.352 101.049 191.133 101.227C190.914 101.404 190.646 101.549 190.328 101.664C190.01 101.773 189.646 101.841 189.234 101.867L188.805 102.383ZM188.805 106H185.555L186.305 104.516H188.805C189.138 104.516 189.414 104.474 189.633 104.391C189.852 104.307 190.013 104.188 190.117 104.031C190.227 103.87 190.281 103.68 190.281 103.461C190.281 103.237 190.229 103.044 190.125 102.883C190.021 102.721 189.859 102.599 189.641 102.516C189.427 102.427 189.148 102.383 188.805 102.383H186.656L186.672 101.055H189.227L189.766 101.57C190.302 101.607 190.747 101.721 191.102 101.914C191.456 102.107 191.721 102.349 191.898 102.641C192.076 102.932 192.164 103.25 192.164 103.594C192.164 103.99 192.089 104.339 191.938 104.641C191.792 104.943 191.573 105.195 191.281 105.398C190.995 105.596 190.643 105.747 190.227 105.852C189.81 105.951 189.336 106 188.805 106ZM195.68 99.1719V109.25H193.797V97.5469H195.531L195.68 99.1719ZM201.188 101.695V101.859C201.188 102.474 201.115 103.044 200.969 103.57C200.828 104.091 200.617 104.547 200.336 104.938C200.06 105.323 199.719 105.622 199.312 105.836C198.906 106.049 198.438 106.156 197.906 106.156C197.38 106.156 196.919 106.06 196.523 105.867C196.133 105.669 195.802 105.391 195.531 105.031C195.26 104.672 195.042 104.25 194.875 103.766C194.714 103.276 194.599 102.74 194.531 102.156V101.523C194.599 100.904 194.714 100.341 194.875 99.8359C195.042 99.3307 195.26 98.8958 195.531 98.5312C195.802 98.1667 196.133 97.8854 196.523 97.6875C196.914 97.4896 197.37 97.3906 197.891 97.3906C198.422 97.3906 198.893 97.4948 199.305 97.7031C199.716 97.9062 200.062 98.1979 200.344 98.5781C200.625 98.9531 200.836 99.4062 200.977 99.9375C201.117 100.464 201.188 101.049 201.188 101.695ZM199.305 101.859V101.695C199.305 101.305 199.268 100.943 199.195 100.609C199.122 100.271 199.008 99.974 198.852 99.7188C198.695 99.4635 198.495 99.2656 198.25 99.125C198.01 98.9792 197.721 98.9062 197.383 98.9062C197.049 98.9062 196.763 98.9635 196.523 99.0781C196.284 99.1875 196.083 99.3411 195.922 99.5391C195.76 99.737 195.635 99.9688 195.547 100.234C195.458 100.495 195.396 100.779 195.359 101.086V102.602C195.422 102.977 195.529 103.32 195.68 103.633C195.831 103.945 196.044 104.195 196.32 104.383C196.602 104.565 196.961 104.656 197.398 104.656C197.737 104.656 198.026 104.583 198.266 104.438C198.505 104.292 198.701 104.091 198.852 103.836C199.008 103.576 199.122 103.276 199.195 102.938C199.268 102.599 199.305 102.24 199.305 101.859ZM206.516 106.156C205.891 106.156 205.326 106.055 204.82 105.852C204.32 105.643 203.893 105.354 203.539 104.984C203.19 104.615 202.922 104.18 202.734 103.68C202.547 103.18 202.453 102.641 202.453 102.062V101.75C202.453 101.089 202.549 100.49 202.742 99.9531C202.935 99.4167 203.203 98.9583 203.547 98.5781C203.891 98.1927 204.297 97.8984 204.766 97.6953C205.234 97.4922 205.742 97.3906 206.289 97.3906C206.893 97.3906 207.422 97.4922 207.875 97.6953C208.328 97.8984 208.703 98.1849 209 98.5547C209.302 98.9193 209.526 99.3542 209.672 99.8594C209.823 100.365 209.898 100.922 209.898 101.531V102.336H203.367V100.984H208.039V100.836C208.029 100.497 207.961 100.18 207.836 99.8828C207.716 99.5859 207.531 99.3464 207.281 99.1641C207.031 98.9818 206.698 98.8906 206.281 98.8906C205.969 98.8906 205.69 98.9583 205.445 99.0938C205.206 99.224 205.005 99.4141 204.844 99.6641C204.682 99.9141 204.557 100.216 204.469 100.57C204.385 100.919 204.344 101.312 204.344 101.75V102.062C204.344 102.432 204.393 102.776 204.492 103.094C204.596 103.406 204.747 103.68 204.945 103.914C205.143 104.148 205.383 104.333 205.664 104.469C205.945 104.599 206.266 104.664 206.625 104.664C207.078 104.664 207.482 104.573 207.836 104.391C208.19 104.208 208.497 103.951 208.758 103.617L209.75 104.578C209.568 104.844 209.331 105.099 209.039 105.344C208.747 105.583 208.391 105.779 207.969 105.93C207.552 106.081 207.068 106.156 206.516 106.156ZM216.391 103.719L218.906 97.5469H220.539L217.031 106H215.75L212.25 97.5469H213.883L216.391 103.719ZM213.398 97.5469V106H211.516V97.5469H213.398ZM219.383 106V97.5469H221.273V106H219.383ZM227.109 106.156C226.484 106.156 225.919 106.055 225.414 105.852C224.914 105.643 224.487 105.354 224.133 104.984C223.784 104.615 223.516 104.18 223.328 103.68C223.141 103.18 223.047 102.641 223.047 102.062V101.75C223.047 101.089 223.143 100.49 223.336 99.9531C223.529 99.4167 223.797 98.9583 224.141 98.5781C224.484 98.1927 224.891 97.8984 225.359 97.6953C225.828 97.4922 226.336 97.3906 226.883 97.3906C227.487 97.3906 228.016 97.4922 228.469 97.6953C228.922 97.8984 229.297 98.1849 229.594 98.5547C229.896 98.9193 230.12 99.3542 230.266 99.8594C230.417 100.365 230.492 100.922 230.492 101.531V102.336H223.961V100.984H228.633V100.836C228.622 100.497 228.555 100.18 228.43 99.8828C228.31 99.5859 228.125 99.3464 227.875 99.1641C227.625 98.9818 227.292 98.8906 226.875 98.8906C226.562 98.8906 226.284 98.9583 226.039 99.0938C225.799 99.224 225.599 99.4141 225.438 99.6641C225.276 99.9141 225.151 100.216 225.062 100.57C224.979 100.919 224.938 101.312 224.938 101.75V102.062C224.938 102.432 224.987 102.776 225.086 103.094C225.19 103.406 225.341 103.68 225.539 103.914C225.737 104.148 225.977 104.333 226.258 104.469C226.539 104.599 226.859 104.664 227.219 104.664C227.672 104.664 228.076 104.573 228.43 104.391C228.784 104.208 229.091 103.951 229.352 103.617L230.344 104.578C230.161 104.844 229.924 105.099 229.633 105.344C229.341 105.583 228.984 105.779 228.562 105.93C228.146 106.081 227.661 106.156 227.109 106.156ZM237.734 101.078V102.562H233.359V101.078H237.734ZM233.906 97.5469V106H232.023V97.5469H233.906ZM239.094 97.5469V106H237.211V97.5469H239.094ZM246.875 101.078V102.562H242.5V101.078H246.875ZM243.047 97.5469V106H241.164V97.5469H243.047ZM248.234 97.5469V106H246.352V97.5469H248.234ZM249.883 101.867V101.688C249.883 101.078 249.971 100.513 250.148 99.9922C250.326 99.4661 250.581 99.0104 250.914 98.625C251.253 98.2344 251.664 97.9323 252.148 97.7188C252.638 97.5 253.19 97.3906 253.805 97.3906C254.424 97.3906 254.977 97.5 255.461 97.7188C255.951 97.9323 256.365 98.2344 256.703 98.625C257.042 99.0104 257.299 99.4661 257.477 99.9922C257.654 100.513 257.742 101.078 257.742 101.688V101.867C257.742 102.477 257.654 103.042 257.477 103.562C257.299 104.083 257.042 104.539 256.703 104.93C256.365 105.315 255.953 105.617 255.469 105.836C254.984 106.049 254.435 106.156 253.82 106.156C253.201 106.156 252.646 106.049 252.156 105.836C251.672 105.617 251.26 105.315 250.922 104.93C250.583 104.539 250.326 104.083 250.148 103.562C249.971 103.042 249.883 102.477 249.883 101.867ZM251.766 101.688V101.867C251.766 102.247 251.805 102.607 251.883 102.945C251.961 103.284 252.083 103.581 252.25 103.836C252.417 104.091 252.63 104.292 252.891 104.438C253.151 104.583 253.461 104.656 253.82 104.656C254.169 104.656 254.471 104.583 254.727 104.438C254.987 104.292 255.201 104.091 255.367 103.836C255.534 103.581 255.656 103.284 255.734 102.945C255.818 102.607 255.859 102.247 255.859 101.867V101.688C255.859 101.312 255.818 100.958 255.734 100.625C255.656 100.286 255.531 99.987 255.359 99.7266C255.193 99.4661 254.979 99.263 254.719 99.1172C254.464 98.9661 254.159 98.8906 253.805 98.8906C253.451 98.8906 253.143 98.9661 252.883 99.1172C252.628 99.263 252.417 99.4661 252.25 99.7266C252.083 99.987 251.961 100.286 251.883 100.625C251.805 100.958 251.766 101.312 251.766 101.688ZM261.086 104.188L261.078 105.531C261.078 106.062 260.945 106.609 260.68 107.172C260.414 107.734 260.062 108.198 259.625 108.562L258.617 107.977C258.763 107.742 258.896 107.505 259.016 107.266C259.135 107.026 259.232 106.771 259.305 106.5C259.378 106.229 259.414 105.93 259.414 105.602V104.188H261.086ZM273.789 102.297H275.742C275.68 103.042 275.471 103.706 275.117 104.289C274.763 104.867 274.266 105.323 273.625 105.656C272.984 105.99 272.206 106.156 271.289 106.156C270.586 106.156 269.953 106.031 269.391 105.781C268.828 105.526 268.346 105.167 267.945 104.703C267.544 104.234 267.237 103.669 267.023 103.008C266.815 102.346 266.711 101.607 266.711 100.789V99.8438C266.711 99.026 266.818 98.2865 267.031 97.625C267.25 96.9635 267.562 96.3984 267.969 95.9297C268.375 95.4557 268.862 95.0938 269.43 94.8438C270.003 94.5938 270.646 94.4688 271.359 94.4688C272.266 94.4688 273.031 94.6354 273.656 94.9688C274.281 95.3021 274.766 95.763 275.109 96.3516C275.458 96.9401 275.672 97.6146 275.75 98.375H273.797C273.745 97.8854 273.63 97.4661 273.453 97.1172C273.281 96.7682 273.026 96.5026 272.688 96.3203C272.349 96.1328 271.906 96.0391 271.359 96.0391C270.911 96.0391 270.521 96.1224 270.188 96.2891C269.854 96.4557 269.576 96.7005 269.352 97.0234C269.128 97.3464 268.958 97.7448 268.844 98.2188C268.734 98.6875 268.68 99.224 268.68 99.8281V100.789C268.68 101.362 268.729 101.883 268.828 102.352C268.932 102.815 269.089 103.214 269.297 103.547C269.51 103.88 269.781 104.138 270.109 104.32C270.438 104.503 270.831 104.594 271.289 104.594C271.846 104.594 272.297 104.505 272.641 104.328C272.99 104.151 273.253 103.893 273.43 103.555C273.612 103.211 273.732 102.792 273.789 102.297ZM281.07 102.039L283.961 94.625H286.125L282.172 103.938C282.047 104.224 281.904 104.503 281.742 104.773C281.586 105.039 281.396 105.276 281.172 105.484C280.948 105.693 280.677 105.859 280.359 105.984C280.042 106.104 279.656 106.164 279.203 106.164C279.083 106.164 278.938 106.159 278.766 106.148C278.599 106.138 278.477 106.128 278.398 106.117L278.414 104.578C278.477 104.589 278.581 104.596 278.727 104.602C278.878 104.607 278.987 104.609 279.055 104.609C279.357 104.609 279.596 104.56 279.773 104.461C279.951 104.357 280.091 104.219 280.195 104.047C280.305 103.87 280.401 103.677 280.484 103.469L281.07 102.039ZM278.898 94.625L281.758 100.922L282.32 102.969L280.797 103.023L276.758 94.625H278.898ZM289.609 94.625V106H287.656V94.625H289.609ZM296.453 94.625L291.828 101.109H289.055L288.789 99.4062H290.742L294.055 94.625H296.453ZM294.453 106L290.773 100.812L292.039 99.3047L296.805 106H294.453ZM303.617 99.1719V109.25H301.734V97.5469H303.469L303.617 99.1719ZM309.125 101.695V101.859C309.125 102.474 309.052 103.044 308.906 103.57C308.766 104.091 308.555 104.547 308.273 104.938C307.997 105.323 307.656 105.622 307.25 105.836C306.844 106.049 306.375 106.156 305.844 106.156C305.318 106.156 304.857 106.06 304.461 105.867C304.07 105.669 303.74 105.391 303.469 105.031C303.198 104.672 302.979 104.25 302.812 103.766C302.651 103.276 302.536 102.74 302.469 102.156V101.523C302.536 100.904 302.651 100.341 302.812 99.8359C302.979 99.3307 303.198 98.8958 303.469 98.5312C303.74 98.1667 304.07 97.8854 304.461 97.6875C304.852 97.4896 305.307 97.3906 305.828 97.3906C306.359 97.3906 306.831 97.4948 307.242 97.7031C307.654 97.9062 308 98.1979 308.281 98.5781C308.562 98.9531 308.773 99.4062 308.914 99.9375C309.055 100.464 309.125 101.049 309.125 101.695ZM307.242 101.859V101.695C307.242 101.305 307.206 100.943 307.133 100.609C307.06 100.271 306.945 99.974 306.789 99.7188C306.633 99.4635 306.432 99.2656 306.188 99.125C305.948 98.9792 305.659 98.9062 305.32 98.9062C304.987 98.9062 304.701 98.9635 304.461 99.0781C304.221 99.1875 304.021 99.3411 303.859 99.5391C303.698 99.737 303.573 99.9688 303.484 100.234C303.396 100.495 303.333 100.779 303.297 101.086V102.602C303.359 102.977 303.466 103.32 303.617 103.633C303.768 103.945 303.982 104.195 304.258 104.383C304.539 104.565 304.898 104.656 305.336 104.656C305.674 104.656 305.964 104.583 306.203 104.438C306.443 104.292 306.638 104.091 306.789 103.836C306.945 103.576 307.06 103.276 307.133 102.938C307.206 102.599 307.242 102.24 307.242 101.859ZM315.492 104.305V100.273C315.492 99.9714 315.438 99.7109 315.328 99.4922C315.219 99.2734 315.052 99.1042 314.828 98.9844C314.609 98.8646 314.333 98.8047 314 98.8047C313.693 98.8047 313.427 98.8568 313.203 98.9609C312.979 99.0651 312.805 99.2057 312.68 99.3828C312.555 99.5599 312.492 99.7604 312.492 99.9844H310.617C310.617 99.651 310.698 99.3281 310.859 99.0156C311.021 98.7031 311.255 98.4245 311.562 98.1797C311.87 97.9349 312.237 97.7422 312.664 97.6016C313.091 97.4609 313.57 97.3906 314.102 97.3906C314.737 97.3906 315.299 97.4974 315.789 97.7109C316.284 97.9245 316.672 98.2474 316.953 98.6797C317.24 99.1068 317.383 99.6432 317.383 100.289V104.047C317.383 104.432 317.409 104.779 317.461 105.086C317.518 105.388 317.599 105.651 317.703 105.875V106H315.773C315.685 105.797 315.615 105.539 315.562 105.227C315.516 104.909 315.492 104.602 315.492 104.305ZM315.766 100.859L315.781 102.023H314.43C314.081 102.023 313.773 102.057 313.508 102.125C313.242 102.188 313.021 102.281 312.844 102.406C312.667 102.531 312.534 102.682 312.445 102.859C312.357 103.036 312.312 103.237 312.312 103.461C312.312 103.685 312.365 103.891 312.469 104.078C312.573 104.26 312.724 104.404 312.922 104.508C313.125 104.612 313.37 104.664 313.656 104.664C314.042 104.664 314.378 104.586 314.664 104.43C314.956 104.268 315.185 104.073 315.352 103.844C315.518 103.609 315.607 103.388 315.617 103.18L316.227 104.016C316.164 104.229 316.057 104.458 315.906 104.703C315.755 104.948 315.557 105.182 315.312 105.406C315.073 105.625 314.784 105.805 314.445 105.945C314.112 106.086 313.727 106.156 313.289 106.156C312.737 106.156 312.245 106.047 311.812 105.828C311.38 105.604 311.042 105.305 310.797 104.93C310.552 104.549 310.43 104.12 310.43 103.641C310.43 103.193 310.513 102.797 310.68 102.453C310.852 102.104 311.102 101.812 311.43 101.578C311.763 101.344 312.169 101.167 312.648 101.047C313.128 100.922 313.674 100.859 314.289 100.859H315.766ZM324.656 93.8438H326.18C326.18 94.3073 326.115 94.6901 325.984 94.9922C325.859 95.2891 325.672 95.5339 325.422 95.7266C325.177 95.9141 324.872 96.0651 324.508 96.1797C324.148 96.2943 323.732 96.3984 323.258 96.4922C322.82 96.5859 322.424 96.7344 322.07 96.9375C321.721 97.1354 321.427 97.4141 321.188 97.7734C320.953 98.1276 320.784 98.5833 320.68 99.1406C320.576 99.6979 320.544 100.378 320.586 101.18V101.711L319.094 101.844V101.312C319.094 100.318 319.185 99.4505 319.367 98.7109C319.549 97.9714 319.807 97.349 320.141 96.8438C320.479 96.3333 320.88 95.9271 321.344 95.625C321.812 95.3229 322.333 95.1146 322.906 95C323.297 94.9167 323.622 94.8333 323.883 94.75C324.143 94.6615 324.336 94.5495 324.461 94.4141C324.591 94.2734 324.656 94.0833 324.656 93.8438ZM323.336 98.0234C323.898 98.0234 324.398 98.1224 324.836 98.3203C325.273 98.513 325.643 98.7839 325.945 99.1328C326.247 99.4818 326.477 99.8932 326.633 100.367C326.794 100.841 326.875 101.357 326.875 101.914V102.086C326.875 102.669 326.789 103.208 326.617 103.703C326.445 104.198 326.193 104.63 325.859 105C325.526 105.365 325.117 105.651 324.633 105.859C324.154 106.062 323.604 106.164 322.984 106.164C322.37 106.164 321.82 106.057 321.336 105.844C320.852 105.63 320.443 105.333 320.109 104.953C319.776 104.568 319.523 104.117 319.352 103.602C319.18 103.086 319.094 102.523 319.094 101.914V101.742C319.089 101.633 319.117 101.526 319.18 101.422C319.247 101.318 319.328 101.206 319.422 101.086C319.516 100.966 319.599 100.828 319.672 100.672C319.932 100.146 320.24 99.6849 320.594 99.2891C320.948 98.8932 321.352 98.5833 321.805 98.3594C322.263 98.1354 322.773 98.0234 323.336 98.0234ZM322.969 99.5156C322.5 99.5156 322.117 99.6276 321.82 99.8516C321.529 100.07 321.312 100.362 321.172 100.727C321.036 101.091 320.969 101.487 320.969 101.914V102.086C320.969 102.435 321.008 102.766 321.086 103.078C321.164 103.391 321.281 103.667 321.438 103.906C321.599 104.141 321.807 104.326 322.062 104.461C322.323 104.596 322.63 104.664 322.984 104.664C323.344 104.664 323.648 104.596 323.898 104.461C324.154 104.326 324.359 104.141 324.516 103.906C324.677 103.667 324.794 103.391 324.867 103.078C324.945 102.766 324.984 102.435 324.984 102.086V101.914C324.984 101.591 324.945 101.286 324.867 101C324.794 100.714 324.677 100.461 324.516 100.242C324.354 100.018 324.146 99.8411 323.891 99.7109C323.635 99.5807 323.328 99.5156 322.969 99.5156ZM327.992 101.867V101.688C327.992 101.078 328.081 100.513 328.258 99.9922C328.435 99.4661 328.69 99.0104 329.023 98.625C329.362 98.2344 329.773 97.9323 330.258 97.7188C330.747 97.5 331.299 97.3906 331.914 97.3906C332.534 97.3906 333.086 97.5 333.57 97.7188C334.06 97.9323 334.474 98.2344 334.812 98.625C335.151 99.0104 335.409 99.4661 335.586 99.9922C335.763 100.513 335.852 101.078 335.852 101.688V101.867C335.852 102.477 335.763 103.042 335.586 103.562C335.409 104.083 335.151 104.539 334.812 104.93C334.474 105.315 334.062 105.617 333.578 105.836C333.094 106.049 332.544 106.156 331.93 106.156C331.31 106.156 330.755 106.049 330.266 105.836C329.781 105.617 329.37 105.315 329.031 104.93C328.693 104.539 328.435 104.083 328.258 103.562C328.081 103.042 327.992 102.477 327.992 101.867ZM329.875 101.688V101.867C329.875 102.247 329.914 102.607 329.992 102.945C330.07 103.284 330.193 103.581 330.359 103.836C330.526 104.091 330.74 104.292 331 104.438C331.26 104.583 331.57 104.656 331.93 104.656C332.279 104.656 332.581 104.583 332.836 104.438C333.096 104.292 333.31 104.091 333.477 103.836C333.643 103.581 333.766 103.284 333.844 102.945C333.927 102.607 333.969 102.247 333.969 101.867V101.688C333.969 101.312 333.927 100.958 333.844 100.625C333.766 100.286 333.641 99.987 333.469 99.7266C333.302 99.4661 333.089 99.263 332.828 99.1172C332.573 98.9661 332.268 98.8906 331.914 98.8906C331.56 98.8906 331.253 98.9661 330.992 99.1172C330.737 99.263 330.526 99.4661 330.359 99.7266C330.193 99.987 330.07 100.286 329.992 100.625C329.914 100.958 329.875 101.312 329.875 101.688ZM341.164 97.5469V106H339.273V97.5469H341.164ZM343.938 97.5469V99.0312H336.547V97.5469H343.938ZM347.141 103.25L350.461 97.5469H352.344V106H350.461V100.289L347.141 106H345.258V97.5469H347.141V103.25ZM360.266 103.25L363.586 97.5469H365.469V106H363.586V100.289L360.266 106H358.383V97.5469H360.266V103.25ZM377.117 97.5469V99.0469H372.945V97.5469H377.117ZM373.391 97.5469V106H371.508V97.5469H373.391ZM378.594 97.5469V106H376.703V97.5469H378.594ZM380.227 101.867V101.688C380.227 101.078 380.315 100.513 380.492 99.9922C380.669 99.4661 380.924 99.0104 381.258 98.625C381.596 98.2344 382.008 97.9323 382.492 97.7188C382.982 97.5 383.534 97.3906 384.148 97.3906C384.768 97.3906 385.32 97.5 385.805 97.7188C386.294 97.9323 386.708 98.2344 387.047 98.625C387.385 99.0104 387.643 99.4661 387.82 99.9922C387.997 100.513 388.086 101.078 388.086 101.688V101.867C388.086 102.477 387.997 103.042 387.82 103.562C387.643 104.083 387.385 104.539 387.047 104.93C386.708 105.315 386.297 105.617 385.812 105.836C385.328 106.049 384.779 106.156 384.164 106.156C383.544 106.156 382.99 106.049 382.5 105.836C382.016 105.617 381.604 105.315 381.266 104.93C380.927 104.539 380.669 104.083 380.492 103.562C380.315 103.042 380.227 102.477 380.227 101.867ZM382.109 101.688V101.867C382.109 102.247 382.148 102.607 382.227 102.945C382.305 103.284 382.427 103.581 382.594 103.836C382.76 104.091 382.974 104.292 383.234 104.438C383.495 104.583 383.805 104.656 384.164 104.656C384.513 104.656 384.815 104.583 385.07 104.438C385.331 104.292 385.544 104.091 385.711 103.836C385.878 103.581 386 103.284 386.078 102.945C386.161 102.607 386.203 102.247 386.203 101.867V101.688C386.203 101.312 386.161 100.958 386.078 100.625C386 100.286 385.875 99.987 385.703 99.7266C385.536 99.4661 385.323 99.263 385.062 99.1172C384.807 98.9661 384.503 98.8906 384.148 98.8906C383.794 98.8906 383.487 98.9661 383.227 99.1172C382.971 99.263 382.76 99.4661 382.594 99.7266C382.427 99.987 382.305 100.286 382.227 100.625C382.148 100.958 382.109 101.312 382.109 101.688ZM393.773 102.383H391.07L391.055 101.055H393.273C393.638 101.055 393.938 101.018 394.172 100.945C394.411 100.872 394.589 100.763 394.703 100.617C394.818 100.466 394.875 100.284 394.875 100.07C394.875 99.8932 394.841 99.7396 394.773 99.6094C394.706 99.474 394.602 99.3646 394.461 99.2812C394.326 99.1927 394.154 99.1302 393.945 99.0938C393.742 99.0521 393.505 99.0312 393.234 99.0312H391.695V106H389.812V97.5469H393.234C393.776 97.5469 394.263 97.5938 394.695 97.6875C395.133 97.7812 395.505 97.9245 395.812 98.1172C396.12 98.3099 396.354 98.5547 396.516 98.8516C396.682 99.1432 396.766 99.487 396.766 99.8828C396.766 100.143 396.708 100.388 396.594 100.617C396.484 100.846 396.32 101.049 396.102 101.227C395.883 101.404 395.615 101.549 395.297 101.664C394.979 101.773 394.615 101.841 394.203 101.867L393.773 102.383ZM393.773 106H390.523L391.273 104.516H393.773C394.107 104.516 394.383 104.474 394.602 104.391C394.82 104.307 394.982 104.188 395.086 104.031C395.195 103.87 395.25 103.68 395.25 103.461C395.25 103.237 395.198 103.044 395.094 102.883C394.99 102.721 394.828 102.599 394.609 102.516C394.396 102.427 394.117 102.383 393.773 102.383H391.625L391.641 101.055H394.195L394.734 101.57C395.271 101.607 395.716 101.721 396.07 101.914C396.424 102.107 396.69 102.349 396.867 102.641C397.044 102.932 397.133 103.25 397.133 103.594C397.133 103.99 397.057 104.339 396.906 104.641C396.76 104.943 396.542 105.195 396.25 105.398C395.964 105.596 395.612 105.747 395.195 105.852C394.779 105.951 394.305 106 393.773 106ZM400.703 103.25L404.023 97.5469H405.906V106H404.023V100.289L400.703 106H398.82V97.5469H400.703V103.25ZM407.961 97.5469H409.844V104.5H412.523V97.5469H414.422V104.5H417.094V97.5469H418.977V106H407.961V97.5469ZM425.773 104.305V100.273C425.773 99.9714 425.719 99.7109 425.609 99.4922C425.5 99.2734 425.333 99.1042 425.109 98.9844C424.891 98.8646 424.615 98.8047 424.281 98.8047C423.974 98.8047 423.708 98.8568 423.484 98.9609C423.26 99.0651 423.086 99.2057 422.961 99.3828C422.836 99.5599 422.773 99.7604 422.773 99.9844H420.898C420.898 99.651 420.979 99.3281 421.141 99.0156C421.302 98.7031 421.536 98.4245 421.844 98.1797C422.151 97.9349 422.518 97.7422 422.945 97.6016C423.372 97.4609 423.852 97.3906 424.383 97.3906C425.018 97.3906 425.581 97.4974 426.07 97.7109C426.565 97.9245 426.953 98.2474 427.234 98.6797C427.521 99.1068 427.664 99.6432 427.664 100.289V104.047C427.664 104.432 427.69 104.779 427.742 105.086C427.799 105.388 427.88 105.651 427.984 105.875V106H426.055C425.966 105.797 425.896 105.539 425.844 105.227C425.797 104.909 425.773 104.602 425.773 104.305ZM426.047 100.859L426.062 102.023H424.711C424.362 102.023 424.055 102.057 423.789 102.125C423.523 102.188 423.302 102.281 423.125 102.406C422.948 102.531 422.815 102.682 422.727 102.859C422.638 103.036 422.594 103.237 422.594 103.461C422.594 103.685 422.646 103.891 422.75 104.078C422.854 104.26 423.005 104.404 423.203 104.508C423.406 104.612 423.651 104.664 423.938 104.664C424.323 104.664 424.659 104.586 424.945 104.43C425.237 104.268 425.466 104.073 425.633 103.844C425.799 103.609 425.888 103.388 425.898 103.18L426.508 104.016C426.445 104.229 426.339 104.458 426.188 104.703C426.036 104.948 425.839 105.182 425.594 105.406C425.354 105.625 425.065 105.805 424.727 105.945C424.393 106.086 424.008 106.156 423.57 106.156C423.018 106.156 422.526 106.047 422.094 105.828C421.661 105.604 421.323 105.305 421.078 104.93C420.833 104.549 420.711 104.12 420.711 103.641C420.711 103.193 420.794 102.797 420.961 102.453C421.133 102.104 421.383 101.812 421.711 101.578C422.044 101.344 422.451 101.167 422.93 101.047C423.409 100.922 423.956 100.859 424.57 100.859H426.047ZM433.742 102.383H431.039L431.023 101.055H433.242C433.607 101.055 433.906 101.018 434.141 100.945C434.38 100.872 434.557 100.763 434.672 100.617C434.786 100.466 434.844 100.284 434.844 100.07C434.844 99.8932 434.81 99.7396 434.742 99.6094C434.674 99.474 434.57 99.3646 434.43 99.2812C434.294 99.1927 434.122 99.1302 433.914 99.0938C433.711 99.0521 433.474 99.0312 433.203 99.0312H431.664V106H429.781V97.5469H433.203C433.745 97.5469 434.232 97.5938 434.664 97.6875C435.102 97.7812 435.474 97.9245 435.781 98.1172C436.089 98.3099 436.323 98.5547 436.484 98.8516C436.651 99.1432 436.734 99.487 436.734 99.8828C436.734 100.143 436.677 100.388 436.562 100.617C436.453 100.846 436.289 101.049 436.07 101.227C435.852 101.404 435.583 101.549 435.266 101.664C434.948 101.773 434.583 101.841 434.172 101.867L433.742 102.383ZM433.742 106H430.492L431.242 104.516H433.742C434.076 104.516 434.352 104.474 434.57 104.391C434.789 104.307 434.951 104.188 435.055 104.031C435.164 103.87 435.219 103.68 435.219 103.461C435.219 103.237 435.167 103.044 435.062 102.883C434.958 102.721 434.797 102.599 434.578 102.516C434.365 102.427 434.086 102.383 433.742 102.383H431.594L431.609 101.055H434.164L434.703 101.57C435.24 101.607 435.685 101.721 436.039 101.914C436.393 102.107 436.659 102.349 436.836 102.641C437.013 102.932 437.102 103.25 437.102 103.594C437.102 103.99 437.026 104.339 436.875 104.641C436.729 104.943 436.51 105.195 436.219 105.398C435.932 105.596 435.581 105.747 435.164 105.852C434.747 105.951 434.273 106 433.742 106ZM443.492 104.305V100.273C443.492 99.9714 443.438 99.7109 443.328 99.4922C443.219 99.2734 443.052 99.1042 442.828 98.9844C442.609 98.8646 442.333 98.8047 442 98.8047C441.693 98.8047 441.427 98.8568 441.203 98.9609C440.979 99.0651 440.805 99.2057 440.68 99.3828C440.555 99.5599 440.492 99.7604 440.492 99.9844H438.617C438.617 99.651 438.698 99.3281 438.859 99.0156C439.021 98.7031 439.255 98.4245 439.562 98.1797C439.87 97.9349 440.237 97.7422 440.664 97.6016C441.091 97.4609 441.57 97.3906 442.102 97.3906C442.737 97.3906 443.299 97.4974 443.789 97.7109C444.284 97.9245 444.672 98.2474 444.953 98.6797C445.24 99.1068 445.383 99.6432 445.383 100.289V104.047C445.383 104.432 445.409 104.779 445.461 105.086C445.518 105.388 445.599 105.651 445.703 105.875V106H443.773C443.685 105.797 443.615 105.539 443.562 105.227C443.516 104.909 443.492 104.602 443.492 104.305ZM443.766 100.859L443.781 102.023H442.43C442.081 102.023 441.773 102.057 441.508 102.125C441.242 102.188 441.021 102.281 440.844 102.406C440.667 102.531 440.534 102.682 440.445 102.859C440.357 103.036 440.312 103.237 440.312 103.461C440.312 103.685 440.365 103.891 440.469 104.078C440.573 104.26 440.724 104.404 440.922 104.508C441.125 104.612 441.37 104.664 441.656 104.664C442.042 104.664 442.378 104.586 442.664 104.43C442.956 104.268 443.185 104.073 443.352 103.844C443.518 103.609 443.607 103.388 443.617 103.18L444.227 104.016C444.164 104.229 444.057 104.458 443.906 104.703C443.755 104.948 443.557 105.182 443.312 105.406C443.073 105.625 442.784 105.805 442.445 105.945C442.112 106.086 441.727 106.156 441.289 106.156C440.737 106.156 440.245 106.047 439.812 105.828C439.38 105.604 439.042 105.305 438.797 104.93C438.552 104.549 438.43 104.12 438.43 103.641C438.43 103.193 438.513 102.797 438.68 102.453C438.852 102.104 439.102 101.812 439.43 101.578C439.763 101.344 440.169 101.167 440.648 101.047C441.128 100.922 441.674 100.859 442.289 100.859H443.766ZM453.367 97.5469V106H451.484V97.5469H453.367ZM458.883 97.5469L455.078 102.633H452.93L452.68 100.93H454.25L456.531 97.5469H458.883ZM456.68 106L454.133 102.312L455.617 101.242L459.156 106H456.68ZM464.945 104.305V100.273C464.945 99.9714 464.891 99.7109 464.781 99.4922C464.672 99.2734 464.505 99.1042 464.281 98.9844C464.062 98.8646 463.786 98.8047 463.453 98.8047C463.146 98.8047 462.88 98.8568 462.656 98.9609C462.432 99.0651 462.258 99.2057 462.133 99.3828C462.008 99.5599 461.945 99.7604 461.945 99.9844H460.07C460.07 99.651 460.151 99.3281 460.312 99.0156C460.474 98.7031 460.708 98.4245 461.016 98.1797C461.323 97.9349 461.69 97.7422 462.117 97.6016C462.544 97.4609 463.023 97.3906 463.555 97.3906C464.19 97.3906 464.753 97.4974 465.242 97.7109C465.737 97.9245 466.125 98.2474 466.406 98.6797C466.693 99.1068 466.836 99.6432 466.836 100.289V104.047C466.836 104.432 466.862 104.779 466.914 105.086C466.971 105.388 467.052 105.651 467.156 105.875V106H465.227C465.138 105.797 465.068 105.539 465.016 105.227C464.969 104.909 464.945 104.602 464.945 104.305ZM465.219 100.859L465.234 102.023H463.883C463.534 102.023 463.227 102.057 462.961 102.125C462.695 102.188 462.474 102.281 462.297 102.406C462.12 102.531 461.987 102.682 461.898 102.859C461.81 103.036 461.766 103.237 461.766 103.461C461.766 103.685 461.818 103.891 461.922 104.078C462.026 104.26 462.177 104.404 462.375 104.508C462.578 104.612 462.823 104.664 463.109 104.664C463.495 104.664 463.831 104.586 464.117 104.43C464.409 104.268 464.638 104.073 464.805 103.844C464.971 103.609 465.06 103.388 465.07 103.18L465.68 104.016C465.617 104.229 465.51 104.458 465.359 104.703C465.208 104.948 465.01 105.182 464.766 105.406C464.526 105.625 464.237 105.805 463.898 105.945C463.565 106.086 463.18 106.156 462.742 106.156C462.19 106.156 461.698 106.047 461.266 105.828C460.833 105.604 460.495 105.305 460.25 104.93C460.005 104.549 459.883 104.12 459.883 103.641C459.883 103.193 459.966 102.797 460.133 102.453C460.305 102.104 460.555 101.812 460.883 101.578C461.216 101.344 461.622 101.167 462.102 101.047C462.581 100.922 463.128 100.859 463.742 100.859H465.219ZM475.594 97.5469V106H473.711V97.5469H475.594ZM474.797 101.289V102.781C474.568 102.88 474.31 102.971 474.023 103.055C473.742 103.133 473.445 103.198 473.133 103.25C472.82 103.297 472.505 103.32 472.188 103.32C471.443 103.32 470.799 103.206 470.258 102.977C469.721 102.747 469.307 102.396 469.016 101.922C468.729 101.443 468.586 100.836 468.586 100.102V97.5391H470.461V100.102C470.461 100.523 470.523 100.859 470.648 101.109C470.779 101.359 470.971 101.539 471.227 101.648C471.482 101.758 471.802 101.812 472.188 101.812C472.51 101.812 472.815 101.792 473.102 101.75C473.388 101.703 473.672 101.641 473.953 101.562C474.234 101.484 474.516 101.393 474.797 101.289ZM481.328 106.156C480.703 106.156 480.138 106.055 479.633 105.852C479.133 105.643 478.706 105.354 478.352 104.984C478.003 104.615 477.734 104.18 477.547 103.68C477.359 103.18 477.266 102.641 477.266 102.062V101.75C477.266 101.089 477.362 100.49 477.555 99.9531C477.747 99.4167 478.016 98.9583 478.359 98.5781C478.703 98.1927 479.109 97.8984 479.578 97.6953C480.047 97.4922 480.555 97.3906 481.102 97.3906C481.706 97.3906 482.234 97.4922 482.688 97.6953C483.141 97.8984 483.516 98.1849 483.812 98.5547C484.115 98.9193 484.339 99.3542 484.484 99.8594C484.635 100.365 484.711 100.922 484.711 101.531V102.336H478.18V100.984H482.852V100.836C482.841 100.497 482.773 100.18 482.648 99.8828C482.529 99.5859 482.344 99.3464 482.094 99.1641C481.844 98.9818 481.51 98.8906 481.094 98.8906C480.781 98.8906 480.503 98.9583 480.258 99.0938C480.018 99.224 479.818 99.4141 479.656 99.6641C479.495 99.9141 479.37 100.216 479.281 100.57C479.198 100.919 479.156 101.312 479.156 101.75V102.062C479.156 102.432 479.206 102.776 479.305 103.094C479.409 103.406 479.56 103.68 479.758 103.914C479.956 104.148 480.195 104.333 480.477 104.469C480.758 104.599 481.078 104.664 481.438 104.664C481.891 104.664 482.294 104.573 482.648 104.391C483.003 104.208 483.31 103.951 483.57 103.617L484.562 104.578C484.38 104.844 484.143 105.099 483.852 105.344C483.56 105.583 483.203 105.779 482.781 105.93C482.365 106.081 481.88 106.156 481.328 106.156ZM489.633 104.656C489.94 104.656 490.216 104.596 490.461 104.477C490.711 104.352 490.911 104.18 491.062 103.961C491.219 103.742 491.305 103.49 491.32 103.203H493.094C493.083 103.75 492.922 104.247 492.609 104.695C492.297 105.143 491.883 105.5 491.367 105.766C490.852 106.026 490.281 106.156 489.656 106.156C489.01 106.156 488.448 106.047 487.969 105.828C487.49 105.604 487.091 105.297 486.773 104.906C486.456 104.516 486.216 104.065 486.055 103.555C485.898 103.044 485.82 102.497 485.82 101.914V101.641C485.82 101.057 485.898 100.51 486.055 100C486.216 99.4844 486.456 99.0312 486.773 98.6406C487.091 98.25 487.49 97.9453 487.969 97.7266C488.448 97.5026 489.008 97.3906 489.648 97.3906C490.326 97.3906 490.919 97.526 491.43 97.7969C491.94 98.0625 492.341 98.4349 492.633 98.9141C492.93 99.388 493.083 99.9401 493.094 100.57H491.32C491.305 100.258 491.227 99.9766 491.086 99.7266C490.951 99.4714 490.758 99.2682 490.508 99.1172C490.263 98.9661 489.969 98.8906 489.625 98.8906C489.245 98.8906 488.93 98.9688 488.68 99.125C488.43 99.276 488.234 99.4844 488.094 99.75C487.953 100.01 487.852 100.305 487.789 100.633C487.732 100.956 487.703 101.292 487.703 101.641V101.914C487.703 102.263 487.732 102.602 487.789 102.93C487.846 103.258 487.945 103.552 488.086 103.812C488.232 104.068 488.43 104.273 488.68 104.43C488.93 104.581 489.247 104.656 489.633 104.656ZM498.461 97.5469V106H496.57V97.5469H498.461ZM501.234 97.5469V99.0312H493.844V97.5469H501.234ZM506.602 102.383H503.898L503.883 101.055H506.102C506.466 101.055 506.766 101.018 507 100.945C507.24 100.872 507.417 100.763 507.531 100.617C507.646 100.466 507.703 100.284 507.703 100.07C507.703 99.8932 507.669 99.7396 507.602 99.6094C507.534 99.474 507.43 99.3646 507.289 99.2812C507.154 99.1927 506.982 99.1302 506.773 99.0938C506.57 99.0521 506.333 99.0312 506.062 99.0312H504.523V106H502.641V97.5469H506.062C506.604 97.5469 507.091 97.5938 507.523 97.6875C507.961 97.7812 508.333 97.9245 508.641 98.1172C508.948 98.3099 509.182 98.5547 509.344 98.8516C509.51 99.1432 509.594 99.487 509.594 99.8828C509.594 100.143 509.536 100.388 509.422 100.617C509.312 100.846 509.148 101.049 508.93 101.227C508.711 101.404 508.443 101.549 508.125 101.664C507.807 101.773 507.443 101.841 507.031 101.867L506.602 102.383ZM506.602 106H503.352L504.102 104.516H506.602C506.935 104.516 507.211 104.474 507.43 104.391C507.648 104.307 507.81 104.188 507.914 104.031C508.023 103.87 508.078 103.68 508.078 103.461C508.078 103.237 508.026 103.044 507.922 102.883C507.818 102.721 507.656 102.599 507.438 102.516C507.224 102.427 506.945 102.383 506.602 102.383H504.453L504.469 101.055H507.023L507.562 101.57C508.099 101.607 508.544 101.721 508.898 101.914C509.253 102.107 509.518 102.349 509.695 102.641C509.872 102.932 509.961 103.25 509.961 103.594C509.961 103.99 509.885 104.339 509.734 104.641C509.589 104.943 509.37 105.195 509.078 105.398C508.792 105.596 508.44 105.747 508.023 105.852C507.607 105.951 507.133 106 506.602 106ZM511.227 101.867V101.688C511.227 101.078 511.315 100.513 511.492 99.9922C511.669 99.4661 511.924 99.0104 512.258 98.625C512.596 98.2344 513.008 97.9323 513.492 97.7188C513.982 97.5 514.534 97.3906 515.148 97.3906C515.768 97.3906 516.32 97.5 516.805 97.7188C517.294 97.9323 517.708 98.2344 518.047 98.625C518.385 99.0104 518.643 99.4661 518.82 99.9922C518.997 100.513 519.086 101.078 519.086 101.688V101.867C519.086 102.477 518.997 103.042 518.82 103.562C518.643 104.083 518.385 104.539 518.047 104.93C517.708 105.315 517.297 105.617 516.812 105.836C516.328 106.049 515.779 106.156 515.164 106.156C514.544 106.156 513.99 106.049 513.5 105.836C513.016 105.617 512.604 105.315 512.266 104.93C511.927 104.539 511.669 104.083 511.492 103.562C511.315 103.042 511.227 102.477 511.227 101.867ZM513.109 101.688V101.867C513.109 102.247 513.148 102.607 513.227 102.945C513.305 103.284 513.427 103.581 513.594 103.836C513.76 104.091 513.974 104.292 514.234 104.438C514.495 104.583 514.805 104.656 515.164 104.656C515.513 104.656 515.815 104.583 516.07 104.438C516.331 104.292 516.544 104.091 516.711 103.836C516.878 103.581 517 103.284 517.078 102.945C517.161 102.607 517.203 102.247 517.203 101.867V101.688C517.203 101.312 517.161 100.958 517.078 100.625C517 100.286 516.875 99.987 516.703 99.7266C516.536 99.4661 516.323 99.263 516.062 99.1172C515.807 98.9661 515.503 98.8906 515.148 98.8906C514.794 98.8906 514.487 98.9661 514.227 99.1172C513.971 99.263 513.76 99.4661 513.594 99.7266C513.427 99.987 513.305 100.286 513.227 100.625C513.148 100.958 513.109 101.312 513.109 101.688ZM524.398 97.5469V106H522.508V97.5469H524.398ZM527.172 97.5469V99.0312H519.781V97.5469H527.172ZM527.773 101.867V101.688C527.773 101.078 527.862 100.513 528.039 99.9922C528.216 99.4661 528.471 99.0104 528.805 98.625C529.143 98.2344 529.555 97.9323 530.039 97.7188C530.529 97.5 531.081 97.3906 531.695 97.3906C532.315 97.3906 532.867 97.5 533.352 97.7188C533.841 97.9323 534.255 98.2344 534.594 98.625C534.932 99.0104 535.19 99.4661 535.367 99.9922C535.544 100.513 535.633 101.078 535.633 101.688V101.867C535.633 102.477 535.544 103.042 535.367 103.562C535.19 104.083 534.932 104.539 534.594 104.93C534.255 105.315 533.844 105.617 533.359 105.836C532.875 106.049 532.326 106.156 531.711 106.156C531.091 106.156 530.536 106.049 530.047 105.836C529.562 105.617 529.151 105.315 528.812 104.93C528.474 104.539 528.216 104.083 528.039 103.562C527.862 103.042 527.773 102.477 527.773 101.867ZM529.656 101.688V101.867C529.656 102.247 529.695 102.607 529.773 102.945C529.852 103.284 529.974 103.581 530.141 103.836C530.307 104.091 530.521 104.292 530.781 104.438C531.042 104.583 531.352 104.656 531.711 104.656C532.06 104.656 532.362 104.583 532.617 104.438C532.878 104.292 533.091 104.091 533.258 103.836C533.424 103.581 533.547 103.284 533.625 102.945C533.708 102.607 533.75 102.247 533.75 101.867V101.688C533.75 101.312 533.708 100.958 533.625 100.625C533.547 100.286 533.422 99.987 533.25 99.7266C533.083 99.4661 532.87 99.263 532.609 99.1172C532.354 98.9661 532.049 98.8906 531.695 98.8906C531.341 98.8906 531.034 98.9661 530.773 99.1172C530.518 99.263 530.307 99.4661 530.141 99.7266C529.974 99.987 529.852 100.286 529.773 100.625C529.695 100.958 529.656 101.312 529.656 101.688ZM546.969 101.078V102.562H542.594V101.078H546.969ZM543.141 97.5469V106H541.258V97.5469H543.141ZM548.328 97.5469V106H546.445V97.5469H548.328ZM555.102 104.305V100.273C555.102 99.9714 555.047 99.7109 554.938 99.4922C554.828 99.2734 554.661 99.1042 554.438 98.9844C554.219 98.8646 553.943 98.8047 553.609 98.8047C553.302 98.8047 553.036 98.8568 552.812 98.9609C552.589 99.0651 552.414 99.2057 552.289 99.3828C552.164 99.5599 552.102 99.7604 552.102 99.9844H550.227C550.227 99.651 550.307 99.3281 550.469 99.0156C550.63 98.7031 550.865 98.4245 551.172 98.1797C551.479 97.9349 551.846 97.7422 552.273 97.6016C552.701 97.4609 553.18 97.3906 553.711 97.3906C554.346 97.3906 554.909 97.4974 555.398 97.7109C555.893 97.9245 556.281 98.2474 556.562 98.6797C556.849 99.1068 556.992 99.6432 556.992 100.289V104.047C556.992 104.432 557.018 104.779 557.07 105.086C557.128 105.388 557.208 105.651 557.312 105.875V106H555.383C555.294 105.797 555.224 105.539 555.172 105.227C555.125 104.909 555.102 104.602 555.102 104.305ZM555.375 100.859L555.391 102.023H554.039C553.69 102.023 553.383 102.057 553.117 102.125C552.852 102.188 552.63 102.281 552.453 102.406C552.276 102.531 552.143 102.682 552.055 102.859C551.966 103.036 551.922 103.237 551.922 103.461C551.922 103.685 551.974 103.891 552.078 104.078C552.182 104.26 552.333 104.404 552.531 104.508C552.734 104.612 552.979 104.664 553.266 104.664C553.651 104.664 553.987 104.586 554.273 104.43C554.565 104.268 554.794 104.073 554.961 103.844C555.128 103.609 555.216 103.388 555.227 103.18L555.836 104.016C555.773 104.229 555.667 104.458 555.516 104.703C555.365 104.948 555.167 105.182 554.922 105.406C554.682 105.625 554.393 105.805 554.055 105.945C553.721 106.086 553.336 106.156 552.898 106.156C552.346 106.156 551.854 106.047 551.422 105.828C550.99 105.604 550.651 105.305 550.406 104.93C550.161 104.549 550.039 104.12 550.039 103.641C550.039 103.193 550.122 102.797 550.289 102.453C550.461 102.104 550.711 101.812 551.039 101.578C551.372 101.344 551.779 101.167 552.258 101.047C552.737 100.922 553.284 100.859 553.898 100.859H555.375ZM285.742 124.078L288.039 116.547H290.055L286.664 126.289C286.586 126.497 286.484 126.724 286.359 126.969C286.234 127.214 286.07 127.445 285.867 127.664C285.669 127.888 285.422 128.068 285.125 128.203C284.828 128.344 284.469 128.414 284.047 128.414C283.88 128.414 283.719 128.398 283.562 128.367C283.411 128.341 283.268 128.312 283.133 128.281L283.125 126.844C283.177 126.849 283.24 126.854 283.312 126.859C283.391 126.865 283.453 126.867 283.5 126.867C283.812 126.867 284.073 126.828 284.281 126.75C284.49 126.677 284.659 126.557 284.789 126.391C284.924 126.224 285.039 126 285.133 125.719L285.742 124.078ZM284.445 116.547L286.453 122.875L286.789 124.859L285.484 125.195L282.414 116.547H284.445ZM294.477 123.656C294.784 123.656 295.06 123.596 295.305 123.477C295.555 123.352 295.755 123.18 295.906 122.961C296.062 122.742 296.148 122.49 296.164 122.203H297.938C297.927 122.75 297.766 123.247 297.453 123.695C297.141 124.143 296.727 124.5 296.211 124.766C295.695 125.026 295.125 125.156 294.5 125.156C293.854 125.156 293.292 125.047 292.812 124.828C292.333 124.604 291.935 124.297 291.617 123.906C291.299 123.516 291.06 123.065 290.898 122.555C290.742 122.044 290.664 121.497 290.664 120.914V120.641C290.664 120.057 290.742 119.51 290.898 119C291.06 118.484 291.299 118.031 291.617 117.641C291.935 117.25 292.333 116.945 292.812 116.727C293.292 116.503 293.852 116.391 294.492 116.391C295.169 116.391 295.763 116.526 296.273 116.797C296.784 117.062 297.185 117.435 297.477 117.914C297.773 118.388 297.927 118.94 297.938 119.57H296.164C296.148 119.258 296.07 118.977 295.93 118.727C295.794 118.471 295.602 118.268 295.352 118.117C295.107 117.966 294.812 117.891 294.469 117.891C294.089 117.891 293.773 117.969 293.523 118.125C293.273 118.276 293.078 118.484 292.938 118.75C292.797 119.01 292.695 119.305 292.633 119.633C292.576 119.956 292.547 120.292 292.547 120.641V120.914C292.547 121.263 292.576 121.602 292.633 121.93C292.69 122.258 292.789 122.552 292.93 122.812C293.076 123.068 293.273 123.273 293.523 123.43C293.773 123.581 294.091 123.656 294.477 123.656ZM305.062 116.547V118.047H300.938V116.547H305.062ZM306.539 116.547V125H304.656V116.547H306.539ZM300.477 116.547H302.336L302.109 120.727C302.078 121.346 302.016 121.893 301.922 122.367C301.833 122.836 301.714 123.24 301.562 123.578C301.411 123.911 301.227 124.182 301.008 124.391C300.789 124.599 300.534 124.753 300.242 124.852C299.951 124.951 299.622 125 299.258 125H298.672L298.664 123.453L298.961 123.43C299.154 123.414 299.32 123.365 299.461 123.281C299.602 123.193 299.721 123.068 299.82 122.906C299.924 122.745 300.008 122.536 300.07 122.281C300.138 122.026 300.19 121.724 300.227 121.375C300.268 121.026 300.299 120.62 300.32 120.156L300.477 116.547ZM310.992 124.078L313.289 116.547H315.305L311.914 126.289C311.836 126.497 311.734 126.724 311.609 126.969C311.484 127.214 311.32 127.445 311.117 127.664C310.919 127.888 310.672 128.068 310.375 128.203C310.078 128.344 309.719 128.414 309.297 128.414C309.13 128.414 308.969 128.398 308.812 128.367C308.661 128.341 308.518 128.312 308.383 128.281L308.375 126.844C308.427 126.849 308.49 126.854 308.562 126.859C308.641 126.865 308.703 126.867 308.75 126.867C309.062 126.867 309.323 126.828 309.531 126.75C309.74 126.677 309.909 126.557 310.039 126.391C310.174 126.224 310.289 126 310.383 125.719L310.992 124.078ZM309.695 116.547L311.703 122.875L312.039 124.859L310.734 125.195L307.664 116.547H309.695ZM322.008 116.547V118.047H318.32V125H316.438V116.547H322.008ZM325.047 122.25L328.367 116.547H330.25V125H328.367V119.289L325.047 125H323.164V116.547H325.047V122.25ZM336.164 116.547V125H334.273V116.547H336.164ZM338.938 116.547V118.031H331.547V116.547H338.938ZM343.344 125.156C342.719 125.156 342.154 125.055 341.648 124.852C341.148 124.643 340.721 124.354 340.367 123.984C340.018 123.615 339.75 123.18 339.562 122.68C339.375 122.18 339.281 121.641 339.281 121.062V120.75C339.281 120.089 339.378 119.49 339.57 118.953C339.763 118.417 340.031 117.958 340.375 117.578C340.719 117.193 341.125 116.898 341.594 116.695C342.062 116.492 342.57 116.391 343.117 116.391C343.721 116.391 344.25 116.492 344.703 116.695C345.156 116.898 345.531 117.185 345.828 117.555C346.13 117.919 346.354 118.354 346.5 118.859C346.651 119.365 346.727 119.922 346.727 120.531V121.336H340.195V119.984H344.867V119.836C344.857 119.497 344.789 119.18 344.664 118.883C344.544 118.586 344.359 118.346 344.109 118.164C343.859 117.982 343.526 117.891 343.109 117.891C342.797 117.891 342.518 117.958 342.273 118.094C342.034 118.224 341.833 118.414 341.672 118.664C341.51 118.914 341.385 119.216 341.297 119.57C341.214 119.919 341.172 120.312 341.172 120.75V121.062C341.172 121.432 341.221 121.776 341.32 122.094C341.424 122.406 341.576 122.68 341.773 122.914C341.971 123.148 342.211 123.333 342.492 123.469C342.773 123.599 343.094 123.664 343.453 123.664C343.906 123.664 344.31 123.573 344.664 123.391C345.018 123.208 345.326 122.951 345.586 122.617L346.578 123.578C346.396 123.844 346.159 124.099 345.867 124.344C345.576 124.583 345.219 124.779 344.797 124.93C344.38 125.081 343.896 125.156 343.344 125.156ZM348.273 124.062C348.273 123.771 348.372 123.526 348.57 123.328C348.768 123.125 349.036 123.023 349.375 123.023C349.719 123.023 349.987 123.125 350.18 123.328C350.378 123.526 350.477 123.771 350.477 124.062C350.477 124.354 350.378 124.599 350.18 124.797C349.987 124.995 349.719 125.094 349.375 125.094C349.036 125.094 348.768 124.995 348.57 124.797C348.372 124.599 348.273 124.354 348.273 124.062Z" fill="#19242D"/>
<circle cx="257.5" cy="237" r="19" fill="#008AEE"/>
<path d="M288.586 221.625H290.57L293.492 229.977L296.414 221.625H298.398L294.289 233H292.695L288.586 221.625ZM287.516 221.625H289.492L289.852 229.766V233H287.516V221.625ZM297.492 221.625H299.477V233H297.133V229.766L297.492 221.625ZM305.953 231.094V227.328C305.953 227.057 305.909 226.826 305.82 226.633C305.732 226.435 305.594 226.281 305.406 226.172C305.224 226.062 304.987 226.008 304.695 226.008C304.445 226.008 304.229 226.052 304.047 226.141C303.865 226.224 303.724 226.346 303.625 226.508C303.526 226.664 303.477 226.849 303.477 227.062H301.227C301.227 226.703 301.31 226.362 301.477 226.039C301.643 225.716 301.885 225.432 302.203 225.188C302.521 224.938 302.898 224.742 303.336 224.602C303.779 224.461 304.273 224.391 304.82 224.391C305.477 224.391 306.06 224.5 306.57 224.719C307.081 224.938 307.482 225.266 307.773 225.703C308.07 226.141 308.219 226.688 308.219 227.344V230.961C308.219 231.424 308.247 231.805 308.305 232.102C308.362 232.393 308.445 232.648 308.555 232.867V233H306.281C306.172 232.771 306.089 232.484 306.031 232.141C305.979 231.792 305.953 231.443 305.953 231.094ZM306.25 227.852L306.266 229.125H305.008C304.711 229.125 304.453 229.159 304.234 229.227C304.016 229.294 303.836 229.391 303.695 229.516C303.555 229.635 303.451 229.776 303.383 229.938C303.32 230.099 303.289 230.276 303.289 230.469C303.289 230.661 303.333 230.836 303.422 230.992C303.51 231.143 303.638 231.263 303.805 231.352C303.971 231.435 304.167 231.477 304.391 231.477C304.729 231.477 305.023 231.409 305.273 231.273C305.523 231.138 305.716 230.971 305.852 230.773C305.992 230.576 306.065 230.388 306.07 230.211L306.664 231.164C306.581 231.378 306.466 231.599 306.32 231.828C306.18 232.057 306 232.273 305.781 232.477C305.562 232.674 305.299 232.839 304.992 232.969C304.685 233.094 304.32 233.156 303.898 233.156C303.362 233.156 302.875 233.049 302.438 232.836C302.005 232.617 301.661 232.318 301.406 231.938C301.156 231.552 301.031 231.115 301.031 230.625C301.031 230.182 301.115 229.789 301.281 229.445C301.448 229.102 301.693 228.812 302.016 228.578C302.344 228.339 302.753 228.159 303.242 228.039C303.732 227.914 304.299 227.852 304.945 227.852H306.25ZM312.203 226.172V236.25H309.953V224.547H312.039L312.203 226.172ZM317.555 228.68V228.844C317.555 229.458 317.482 230.029 317.336 230.555C317.195 231.081 316.987 231.539 316.711 231.93C316.435 232.315 316.091 232.617 315.68 232.836C315.273 233.049 314.805 233.156 314.273 233.156C313.758 233.156 313.31 233.052 312.93 232.844C312.549 232.635 312.229 232.344 311.969 231.969C311.714 231.589 311.508 231.148 311.352 230.648C311.195 230.148 311.076 229.612 310.992 229.039V228.609C311.076 227.995 311.195 227.432 311.352 226.922C311.508 226.406 311.714 225.961 311.969 225.586C312.229 225.206 312.547 224.911 312.922 224.703C313.302 224.495 313.747 224.391 314.258 224.391C314.794 224.391 315.266 224.492 315.672 224.695C316.083 224.898 316.427 225.19 316.703 225.57C316.984 225.951 317.195 226.404 317.336 226.93C317.482 227.456 317.555 228.039 317.555 228.68ZM315.297 228.844V228.68C315.297 228.32 315.266 227.99 315.203 227.688C315.146 227.38 315.052 227.112 314.922 226.883C314.797 226.654 314.63 226.477 314.422 226.352C314.219 226.221 313.971 226.156 313.68 226.156C313.372 226.156 313.109 226.206 312.891 226.305C312.677 226.404 312.503 226.547 312.367 226.734C312.232 226.922 312.13 227.146 312.062 227.406C311.995 227.667 311.953 227.961 311.938 228.289V229.375C311.964 229.76 312.036 230.107 312.156 230.414C312.276 230.716 312.461 230.956 312.711 231.133C312.961 231.31 313.289 231.398 313.695 231.398C313.992 231.398 314.242 231.333 314.445 231.203C314.648 231.068 314.812 230.883 314.938 230.648C315.068 230.414 315.159 230.143 315.211 229.836C315.268 229.529 315.297 229.198 315.297 228.844ZM322.836 224.547V233H320.578V224.547H322.836ZM325.555 224.547V226.289H317.898V224.547H325.555ZM328.945 229.859L331.781 224.547H334.031V233H331.781V227.68L328.945 233H326.695V224.547H328.945V229.859ZM341.555 227.961V229.711H337.258V227.961H341.555ZM338.008 224.547V233H335.758V224.547H338.008ZM343.078 224.547V233H340.82V224.547H343.078ZM351.211 229.312L355.781 221.625H358.125V233H355.781V225.312L351.211 233H348.867V221.625H351.211V229.312ZM365.844 224.547V226.312H361.688V224.547H365.844ZM367.492 224.547V233H365.242V224.547H367.492ZM361.125 224.547H363.336L363.109 228.812C363.078 229.422 363.013 229.958 362.914 230.422C362.815 230.885 362.682 231.281 362.516 231.609C362.354 231.938 362.159 232.206 361.93 232.414C361.706 232.617 361.443 232.766 361.141 232.859C360.844 232.953 360.516 233 360.156 233H359.469L359.445 231.227L359.734 231.195C359.901 231.18 360.047 231.133 360.172 231.055C360.302 230.971 360.411 230.854 360.5 230.703C360.594 230.547 360.672 230.352 360.734 230.117C360.797 229.878 360.846 229.596 360.883 229.273C360.924 228.951 360.953 228.578 360.969 228.156L361.125 224.547ZM371.477 229.859L374.312 224.547H376.562V233H374.312V227.68L371.477 233H369.227V224.547H371.477V229.859ZM382.188 233.156C381.531 233.156 380.943 233.052 380.422 232.844C379.901 232.63 379.458 232.336 379.094 231.961C378.734 231.586 378.458 231.151 378.266 230.656C378.073 230.156 377.977 229.625 377.977 229.062V228.75C377.977 228.109 378.068 227.523 378.25 226.992C378.432 226.461 378.693 226 379.031 225.609C379.375 225.219 379.792 224.919 380.281 224.711C380.771 224.497 381.323 224.391 381.938 224.391C382.536 224.391 383.068 224.49 383.531 224.688C383.995 224.885 384.383 225.167 384.695 225.531C385.013 225.896 385.253 226.333 385.414 226.844C385.576 227.349 385.656 227.911 385.656 228.531V229.469H378.938V227.969H383.445V227.797C383.445 227.484 383.388 227.206 383.273 226.961C383.164 226.711 382.997 226.513 382.773 226.367C382.549 226.221 382.263 226.148 381.914 226.148C381.617 226.148 381.362 226.214 381.148 226.344C380.935 226.474 380.76 226.656 380.625 226.891C380.495 227.125 380.396 227.401 380.328 227.719C380.266 228.031 380.234 228.375 380.234 228.75V229.062C380.234 229.401 380.281 229.714 380.375 230C380.474 230.286 380.612 230.534 380.789 230.742C380.971 230.951 381.19 231.112 381.445 231.227C381.706 231.341 382 231.398 382.328 231.398C382.734 231.398 383.112 231.32 383.461 231.164C383.815 231.003 384.12 230.76 384.375 230.438L385.469 231.625C385.292 231.88 385.049 232.125 384.742 232.359C384.44 232.594 384.076 232.786 383.648 232.938C383.221 233.083 382.734 233.156 382.188 233.156ZM391.148 229.469H388.5L388.484 227.992H390.672C390.964 227.992 391.201 227.964 391.383 227.906C391.565 227.844 391.698 227.753 391.781 227.633C391.87 227.508 391.914 227.357 391.914 227.18C391.914 227.023 391.885 226.891 391.828 226.781C391.776 226.667 391.695 226.573 391.586 226.5C391.477 226.427 391.339 226.375 391.172 226.344C391.01 226.307 390.82 226.289 390.602 226.289H389.336V233H387.086V224.547H390.602C391.154 224.547 391.648 224.596 392.086 224.695C392.523 224.789 392.896 224.932 393.203 225.125C393.516 225.318 393.753 225.562 393.914 225.859C394.081 226.151 394.164 226.497 394.164 226.898C394.164 227.159 394.104 227.404 393.984 227.633C393.87 227.862 393.698 228.065 393.469 228.242C393.24 228.419 392.956 228.565 392.617 228.68C392.284 228.789 391.898 228.857 391.461 228.883L391.148 229.469ZM391.148 233H387.945L388.719 231.258H391.148C391.424 231.258 391.651 231.224 391.828 231.156C392.005 231.089 392.135 230.99 392.219 230.859C392.307 230.724 392.352 230.562 392.352 230.375C392.352 230.193 392.312 230.034 392.234 229.898C392.156 229.763 392.029 229.659 391.852 229.586C391.68 229.508 391.445 229.469 391.148 229.469H389.047L389.062 227.992H391.453L392 228.586C392.594 228.622 393.083 228.734 393.469 228.922C393.854 229.109 394.138 229.349 394.32 229.641C394.508 229.927 394.602 230.242 394.602 230.586C394.602 230.987 394.526 231.339 394.375 231.641C394.224 231.943 394 232.195 393.703 232.398C393.411 232.596 393.052 232.747 392.625 232.852C392.198 232.951 391.706 233 391.148 233Z" fill="#008AEE"/>
<path d="M292.272 244.648C292.436 244.279 292.519 244.094 292.634 244.037C292.733 243.988 292.85 243.988 292.95 244.037C293.064 244.094 293.147 244.279 293.312 244.648L294.624 247.592C294.672 247.701 294.697 247.756 294.734 247.797C294.768 247.834 294.808 247.864 294.854 247.884C294.905 247.907 294.965 247.914 295.084 247.926L298.289 248.264C298.691 248.307 298.892 248.328 298.982 248.42C299.059 248.499 299.096 248.61 299.079 248.72C299.061 248.847 298.91 248.982 298.61 249.253L296.216 251.411C296.127 251.491 296.083 251.531 296.055 251.58C296.03 251.623 296.014 251.671 296.009 251.72C296.003 251.776 296.015 251.835 296.04 251.952L296.709 255.104C296.793 255.5 296.835 255.698 296.775 255.811C296.724 255.91 296.629 255.979 296.52 255.997C296.393 256.019 296.218 255.918 295.868 255.715L293.076 254.105C292.972 254.045 292.921 254.016 292.866 254.004C292.817 253.994 292.766 253.994 292.718 254.004C292.663 254.016 292.611 254.045 292.507 254.105L289.716 255.715C289.365 255.918 289.19 256.019 289.064 255.997C288.954 255.979 288.859 255.91 288.808 255.811C288.748 255.698 288.79 255.5 288.874 255.104L289.543 251.952C289.568 251.835 289.58 251.776 289.574 251.72C289.569 251.671 289.554 251.623 289.529 251.58C289.501 251.531 289.456 251.491 289.367 251.411L286.973 249.253C286.673 248.982 286.522 248.847 286.504 248.72C286.488 248.61 286.524 248.499 286.602 248.42C286.691 248.328 286.892 248.307 287.295 248.264L290.5 247.926C290.618 247.914 290.678 247.907 290.729 247.884C290.775 247.864 290.816 247.834 290.849 247.797C290.887 247.756 290.911 247.701 290.96 247.592L292.272 244.648Z" fill="#008AEE" stroke="#008AEE" stroke-width="1.5" stroke-linecap="round" stroke-linejoin="round"/>
<path d="M308.855 244.648C309.019 244.279 309.102 244.094 309.217 244.037C309.316 243.988 309.433 243.988 309.533 244.037C309.647 244.094 309.73 244.279 309.895 244.648L311.207 247.592C311.255 247.701 311.28 247.756 311.317 247.797C311.351 247.834 311.391 247.864 311.437 247.884C311.488 247.907 311.548 247.914 311.667 247.926L314.872 248.264C315.274 248.307 315.475 248.328 315.565 248.42C315.642 248.499 315.679 248.61 315.662 248.72C315.644 248.847 315.494 248.982 315.193 249.253L312.799 251.411C312.71 251.491 312.666 251.531 312.638 251.58C312.613 251.623 312.597 251.671 312.592 251.72C312.586 251.776 312.598 251.835 312.623 251.952L313.292 255.104C313.376 255.5 313.418 255.698 313.358 255.811C313.307 255.91 313.212 255.979 313.103 255.997C312.976 256.019 312.801 255.918 312.451 255.715L309.659 254.105C309.555 254.045 309.504 254.016 309.449 254.004C309.4 253.994 309.349 253.994 309.301 254.004C309.246 254.016 309.194 254.045 309.09 254.105L306.299 255.715C305.948 255.918 305.773 256.019 305.647 255.997C305.537 255.979 305.442 255.91 305.391 255.811C305.331 255.698 305.373 255.5 305.457 255.104L306.126 251.952C306.151 251.835 306.163 251.776 306.157 251.72C306.152 251.671 306.137 251.623 306.112 251.58C306.084 251.531 306.039 251.491 305.95 251.411L303.556 249.253C303.256 248.982 303.106 248.847 303.087 248.72C303.071 248.61 303.107 248.499 303.185 248.42C303.274 248.328 303.475 248.307 303.878 248.264L307.083 247.926C307.201 247.914 307.261 247.907 307.312 247.884C307.358 247.864 307.399 247.834 307.432 247.797C307.47 247.756 307.494 247.701 307.543 247.592L308.855 244.648Z" fill="#008AEE" stroke="#008AEE" stroke-width="1.5" stroke-linecap="round" stroke-linejoin="round"/>
<path d="M325.438 244.648C325.603 244.279 325.685 244.094 325.8 244.037C325.9 243.988 326.017 243.988 326.116 244.037C326.231 244.094 326.313 244.279 326.478 244.648L327.79 247.592C327.839 247.701 327.863 247.756 327.901 247.797C327.934 247.834 327.975 247.864 328.02 247.884C328.072 247.907 328.131 247.914 328.25 247.926L331.455 248.264C331.857 248.307 332.059 248.328 332.148 248.42C332.226 248.499 332.262 248.61 332.246 248.72C332.227 248.847 332.077 248.982 331.776 249.253L329.382 251.411C329.294 251.491 329.249 251.531 329.221 251.58C329.196 251.623 329.181 251.671 329.175 251.72C329.169 251.776 329.182 251.835 329.207 251.952L329.875 255.104C329.959 255.5 330.001 255.698 329.942 255.811C329.89 255.91 329.796 255.979 329.686 255.997C329.56 256.019 329.385 255.918 329.034 255.715L326.243 254.105C326.139 254.045 326.087 254.016 326.032 254.004C325.983 253.994 325.933 253.994 325.884 254.004C325.829 254.016 325.777 254.045 325.674 254.105L322.882 255.715C322.532 255.918 322.356 256.019 322.23 255.997C322.121 255.979 322.026 255.91 321.974 255.811C321.915 255.698 321.957 255.5 322.041 255.104L322.71 251.952C322.734 251.835 322.747 251.776 322.741 251.72C322.736 251.671 322.72 251.623 322.695 251.58C322.667 251.531 322.623 251.491 322.534 251.411L320.14 249.253C319.839 248.982 319.689 248.847 319.67 248.72C319.654 248.61 319.69 248.499 319.768 248.42C319.858 248.328 320.059 248.307 320.461 248.264L323.666 247.926C323.785 247.914 323.844 247.907 323.896 247.884C323.941 247.864 323.982 247.834 324.015 247.797C324.053 247.756 324.077 247.701 324.126 247.592L325.438 244.648Z" fill="#008AEE" stroke="#008AEE" stroke-width="1.5" stroke-linecap="round" stroke-linejoin="round"/>
<path d="M342.021 244.648C342.186 244.279 342.268 244.094 342.383 244.037C342.483 243.988 342.6 243.988 342.699 244.037C342.814 244.094 342.896 244.279 343.061 244.648L344.373 247.592C344.422 247.701 344.446 247.756 344.484 247.797C344.517 247.834 344.558 247.864 344.603 247.884C344.655 247.907 344.714 247.914 344.833 247.926L348.038 248.264C348.441 248.307 348.642 248.328 348.731 248.42C348.809 248.499 348.845 248.61 348.829 248.72C348.81 248.847 348.66 248.982 348.359 249.253L345.965 251.411C345.877 251.491 345.832 251.531 345.804 251.58C345.779 251.623 345.764 251.671 345.758 251.72C345.752 251.776 345.765 251.835 345.79 251.952L346.458 255.104C346.542 255.5 346.584 255.698 346.525 255.811C346.473 255.91 346.379 255.979 346.269 255.997C346.143 256.019 345.968 255.918 345.617 255.715L342.826 254.105C342.722 254.045 342.67 254.016 342.615 254.004C342.566 253.994 342.516 253.994 342.467 254.004C342.412 254.016 342.36 254.045 342.257 254.105L339.465 255.715C339.115 255.918 338.939 256.019 338.813 255.997C338.704 255.979 338.609 255.91 338.557 255.811C338.498 255.698 338.54 255.5 338.624 255.104L339.293 251.952C339.317 251.835 339.33 251.776 339.324 251.72C339.319 251.671 339.303 251.623 339.278 251.58C339.25 251.531 339.206 251.491 339.117 251.411L336.723 249.253C336.422 248.982 336.272 248.847 336.253 248.72C336.237 248.61 336.273 248.499 336.351 248.42C336.441 248.328 336.642 248.307 337.044 248.264L340.249 247.926C340.368 247.914 340.427 247.907 340.479 247.884C340.524 247.864 340.565 247.834 340.598 247.797C340.636 247.756 340.66 247.701 340.709 247.592L342.021 244.648Z" fill="#008AEE" stroke="#008AEE" stroke-width="1.5" stroke-linecap="round" stroke-linejoin="round"/>
<path d="M358.605 244.648C358.769 244.279 358.852 244.094 358.967 244.037C359.066 243.988 359.183 243.988 359.283 244.037C359.397 244.094 359.48 244.279 359.645 244.648L360.957 247.592C361.005 247.701 361.03 247.756 361.067 247.797C361.101 247.834 361.141 247.864 361.187 247.884C361.238 247.907 361.298 247.914 361.417 247.926L364.622 248.264C365.024 248.307 365.225 248.328 365.315 248.42C365.392 248.499 365.429 248.61 365.412 248.72C365.394 248.847 365.244 248.982 364.943 249.253L362.549 251.411C362.46 251.491 362.416 251.531 362.388 251.58C362.363 251.623 362.347 251.671 362.342 251.72C362.336 251.776 362.348 251.835 362.373 251.952L363.042 255.104C363.126 255.5 363.168 255.698 363.108 255.811C363.057 255.91 362.962 255.979 362.853 255.997C362.726 256.019 362.551 255.918 362.201 255.715L359.409 254.105C359.305 254.045 359.254 254.016 359.199 254.004C359.15 253.994 359.099 253.994 359.051 254.004C358.996 254.016 358.944 254.045 358.84 254.105L356.049 255.715C355.698 255.918 355.523 256.019 355.397 255.997C355.287 255.979 355.192 255.91 355.141 255.811C355.081 255.698 355.123 255.5 355.207 255.104L355.876 251.952C355.901 251.835 355.913 251.776 355.907 251.72C355.902 251.671 355.887 251.623 355.862 251.58C355.834 251.531 355.789 251.491 355.7 251.411L353.306 249.253C353.006 248.982 352.856 248.847 352.837 248.72C352.821 248.61 352.857 248.499 352.935 248.42C353.024 248.328 353.225 248.307 353.628 248.264L356.833 247.926C356.951 247.914 357.011 247.907 357.062 247.884C357.108 247.864 357.149 247.834 357.182 247.797C357.22 247.756 357.244 247.701 357.293 247.592L358.605 244.648Z" fill="#008AEE" stroke="#008AEE" stroke-width="1.5" stroke-linecap="round" stroke-linejoin="round"/>
</g>
<defs>
<filter id="filter0_d_2842_567" x="0" y="0" width="634" height="301" filterUnits="userSpaceOnUse" color-interpolation-filters="sRGB">
<feFlood flood-opacity="0" result="BackgroundImageFix"/>
<feColorMatrix in="SourceAlpha" type="matrix" values="0 0 0 0 0 0 0 0 0 0 0 0 0 0 0 0 0 0 127 0" result="hardAlpha"/>
<feOffset/>
<feGaussianBlur stdDeviation="10"/>
<feColorMatrix type="matrix" values="0 0 0 0 0 0 0 0 0 0 0 0 0 0 0 0 0 0 0.08 0"/>
<feBlend mode="normal" in2="BackgroundImageFix" result="effect1_dropShadow_2842_567"/>
<feBlend mode="normal" in="SourceGraphic" in2="effect1_dropShadow_2842_567" result="shape"/>
</filter>
</defs>
</svg>
